<svg id="Camada_1" data-name="Camada 1" xmlns="http://www.w3.org/2000/svg" viewBox="0 0 720 720"><defs><style>.cls-1{fill:#fff;}.cls-2{fill:none;stroke:#fff;stroke-miterlimit:10;stroke-width:40px;}</style></defs><path class="cls-1" d="M469.58,384.38,413.25,568.5H204.51a10.34,10.34,0,0,1-6.39-2.37,26.88,26.88,0,0,1-5.68-6.15,33.87,33.87,0,0,1-4-7.81,23.33,23.33,0,0,1-1.42-7.81c0-1.89.16-3,.47-3.31L306.75,151.5H515.49a10.39,10.39,0,0,1,6.39,2.37,27.1,27.1,0,0,1,5.68,6.15,32.43,32.43,0,0,1,4,8,24.25,24.25,0,0,1,1.42,7.57c0,1.89-.16,3-.47,3.31L492.77,309.12l-69.11-57.27L429.82,232H368.28l-24.61,80H278.83l44,69.1L289.71,488h61.53l24.62-79.51H362.13L311,328.05H429.34Z"/><path class="cls-1" d="M353.89,423.52l-4.42-7-14.73-23.19L310.06,473h30.13l15.32-49.51ZM332.81,463h-9.18l14.26-46,3.14,4.94,3,4.77Z"/><path class="cls-1" d="M555.3,160.16a57.21,57.21,0,0,0-7.11-14.25l0,0,0,0a51.9,51.9,0,0,0-11-11.74l0,0,0,0a35.35,35.35,0,0,0-21.59-7.52H288.26l-5.41,17.68L164,532.3a32.69,32.69,0,0,0-2,12.06,48.63,48.63,0,0,0,2.84,16.13,59.19,59.19,0,0,0,7,13.65,51.75,51.75,0,0,0,11,11.8,35.3,35.3,0,0,0,21.64,7.56H431.74l5.42-17.69,56.32-184.12,3.61-11.8-7.17-10-40.23-56.33-7.48-10.47H372.57L386.75,257h9.16l-1.07,3.46,12.87,10.66,69.1,57.28,28.9,23.95,11-35.9L555.89,188A32.16,32.16,0,0,0,558,175.64,49.26,49.26,0,0,0,555.3,160.16Zm-8.77,24.3-39.42,129L500.53,335,483.2,320.67l-69.11-57.28-7.72-6.4,3-9.58.14-.44H379.36L359,313.05h78l4.49,6.28,40.23,56.33,4.31,6-2.17,7.08L427.59,572.89l-3.24,10.61H204.51A25.4,25.4,0,0,1,189,578a41.84,41.84,0,0,1-8.89-9.55,48.69,48.69,0,0,1-5.81-11.31,38.67,38.67,0,0,1-2.27-12.8,22.48,22.48,0,0,1,1.48-8.85l118.93-388.4,3.25-10.61H515.49A25.44,25.44,0,0,1,531,142l0,0,0,0a42.4,42.4,0,0,1,8.86,9.51v0l0,0a47.63,47.63,0,0,1,5.87,11.77A39.32,39.32,0,0,1,548,175.64,22.48,22.48,0,0,1,546.53,184.46Z"/><circle class="cls-2" cx="360" cy="360" r="323"/></svg>